<?xml version="1.0" standalone="no"?>
<!DOCTYPE svg PUBLIC "-//W3C//DTD SVG 20010904//EN"
 "http://www.w3.org/TR/2001/REC-SVG-20010904/DTD/svg10.dtd">
<svg version="1.0" xmlns="http://www.w3.org/2000/svg"
 width="280.000000pt" height="145.000000pt" viewBox="0 0 280.000000 145.000000"
 preserveAspectRatio="xMidYMid meet">

<g transform="translate(0.000000,145.000000) scale(0.100000,-0.100000)"
fill="#000000" stroke="none">
<path d="M1133 1438 c-13 -6 -23 -17 -23 -23 0 -7 -7 -18 -15 -25 -10 -8 -15
-31 -15 -69 l1 -56 14 33 c8 17 19 32 25 32 8 0 8 -6 0 -20 -7 -14 -8 -26 -1
-38 6 -9 11 -12 11 -7 0 6 4 3 9 -4 8 -12 12 -9 22 13 10 20 10 29 1 34 -7 5
-8 13 -2 22 5 9 5 19 -2 27 -7 9 -6 20 7 39 16 24 15 55 -2 53 -4 0 -18 -5
-30 -11z"/>
<path d="M1199 1422 c-29 -34 -29 -41 -5 -67 24 -26 25 -26 36 -5 18 33 29 14
18 -30 -6 -22 -15 -37 -20 -33 -7 4 -7 0 -1 -12 6 -10 8 -26 6 -36 -11 -41 6
-15 27 42 20 52 21 65 11 99 -6 22 -20 44 -31 50 -24 13 -23 13 -41 -8z"/>
<path d="M1070 1420 c-8 -5 -13 -10 -10 -11 3 0 13 -2 23 -4 9 -2 17 3 17 11
0 16 -9 18 -30 4z"/>
<path d="M1290 1340 c0 -5 3 -10 8 -11 4 0 17 -2 30 -5 15 -3 22 1 22 11 0 10
-10 15 -30 15 -16 0 -30 -4 -30 -10z"/>
<path d="M1170 1264 c0 -5 11 -14 24 -20 19 -9 26 -9 29 1 3 6 0 12 -6 12 -7
0 -20 4 -29 8 -10 4 -18 3 -18 -1z"/>
<path d="M1136 1208 c5 -8 1 -9 -12 -5 -19 7 -19 7 0 -8 19 -14 36 -12 36 5 0
4 -7 11 -16 14 -10 4 -13 2 -8 -6z"/>
<path d="M1170 1145 l-25 -14 28 -1 c17 0 27 5 27 15 0 18 1 18 -30 0z"/>
<path d="M750 1060 c0 -6 37 -10 91 -10 50 0 99 -5 110 -10 50 -27 66 -146 29
-208 -17 -28 -25 -33 -53 -30 -26 2 -33 8 -35 30 -2 19 3 30 17 38 36 19 23
25 -49 25 -38 0 -70 -4 -70 -8 0 -4 7 -19 16 -32 15 -23 16 -69 3 -115 -6 -21
156 -24 188 -3 55 36 67 130 32 238 -12 36 -20 68 -17 71 3 3 29 2 57 -2 l51
-7 0 -172 0 -172 -28 -25 c-16 -14 -45 -31 -65 -37 -68 -23 -90 -92 -41 -130
32 -25 64 -27 104 -6 30 16 35 31 24 73 -10 36 -36 28 -32 -10 2 -25 -1 -33
-15 -36 -46 -9 -63 47 -22 74 44 29 89 11 169 -65 125 -119 149 -130 200 -90
29 22 30 27 16 49 -7 12 -12 12 -29 -4 -20 -19 -22 -18 -99 56 -50 48 -95 81
-123 91 l-44 16 48 -5 c50 -7 59 2 30 29 -16 14 -18 34 -15 191 l3 176 184 0
185 0 0 -41 c0 -35 -2 -40 -17 -34 -35 14 -161 17 -211 5 -59 -14 -71 -34 -41
-66 24 -26 39 -23 39 7 0 37 31 35 66 -5 41 -48 57 -106 41 -155 -12 -36 -13
-36 -67 -36 l-55 0 3 33 c4 34 -8 41 -28 17 -7 -8 -18 -15 -26 -15 -13 0 -34
-30 -34 -49 0 -6 9 -20 20 -31 17 -17 33 -20 113 -20 111 0 127 11 134 87 6
59 -9 118 -42 167 l-24 36 33 0 c18 0 48 -3 65 -6 l31 -6 0 -124 c0 -124 0
-125 -25 -134 -41 -16 -28 -29 28 -29 28 1 63 0 76 -2 30 -5 40 17 12 26 -20
6 -21 13 -21 196 l0 189 40 0 c22 0 40 5 40 10 0 7 -168 10 -485 10 -317 0
-485 -3 -485 -10z"/>
<path d="M1782 758 c-17 -17 -15 -63 3 -78 23 -19 64 -4 71 26 11 44 -43 83
-74 52z"/>
<path d="M1955 750 c-24 -26 -13 -68 20 -76 32 -8 55 11 55 45 0 50 -42 67
-75 31z"/>
<path d="M1454 345 c-7 -18 2 -45 15 -45 13 0 22 27 15 45 -4 8 -10 15 -15 15
-5 0 -12 -7 -15 -15z"/>
<path d="M2326 338 c-9 -12 -16 -32 -16 -44 0 -12 -6 -25 -12 -28 -10 -5 -10
-7 0 -12 16 -7 16 -126 0 -142 -9 -9 -3 -12 28 -11 21 0 33 3 27 6 -9 3 -13
28 -13 74 0 67 1 69 25 69 24 0 25 -2 25 -63 0 -36 -5 -68 -12 -75 -9 -9 -3
-12 28 -11 21 0 33 3 27 6 -16 6 -18 143 -3 143 6 0 10 5 10 11 0 5 -4 7 -10
4 -6 -4 -10 11 -10 37 1 34 3 39 11 26 14 -26 29 -22 29 7 0 18 -5 25 -19 25
-24 0 -42 -22 -50 -63 -5 -23 -13 -33 -29 -35 -20 -3 -22 1 -22 40 1 34 3 39
11 26 14 -26 29 -22 29 7 0 32 -33 34 -54 3z"/>
<path d="M92 339 c-56 -21 -71 -172 -22 -224 46 -48 104 -21 113 53 l5 42 -36
0 c-34 0 -35 -1 -18 -19 25 -27 18 -75 -11 -79 -30 -4 -43 29 -43 108 0 74 13
110 40 110 11 0 20 -1 20 -2 0 -2 7 -21 15 -43 l14 -40 1 49 c0 27 -3 47 -6
43 -3 -3 -16 -2 -28 2 -11 5 -31 5 -44 0z"/>
<path d="M243 326 c-24 -21 -28 -32 -31 -93 -5 -78 13 -127 48 -138 91 -29
136 169 53 234 -32 26 -36 26 -70 -3z m66 -27 c12 -35 13 -119 2 -159 -4 -15
-15 -26 -28 -28 -18 -3 -24 4 -34 40 -28 107 27 242 60 147z"/>
<path d="M417 329 c-83 -65 -38 -263 53 -234 35 11 53 60 48 138 -3 61 -7 72
-31 93 -34 29 -38 29 -70 3z m51 -12 c18 -22 25 -118 13 -165 -10 -36 -16 -43
-34 -40 -25 4 -35 31 -36 104 -2 87 27 138 57 101z"/>
<path d="M540 331 c0 -6 5 -13 10 -16 15 -9 13 -188 -2 -203 -9 -9 -5 -12 21
-12 29 0 31 1 17 16 -12 11 -16 35 -15 92 l1 77 43 -92 c25 -51 49 -93 55 -93
6 0 10 40 10 108 0 71 4 112 12 120 9 9 5 12 -22 12 -31 0 -32 -1 -17 -18 12
-13 17 -36 16 -83 l0 -64 -42 83 c-34 67 -46 82 -64 82 -13 0 -23 -4 -23 -9z"/>
<path d="M750 330 c0 -5 5 -10 10 -10 11 0 14 -150 4 -187 -11 -39 -34 -28
-27 12 4 28 2 35 -11 35 -11 0 -16 -9 -16 -33 0 -56 34 -73 70 -37 17 17 20
33 20 113 0 59 4 97 12 105 9 9 4 12 -25 12 -20 0 -37 -4 -37 -10z"/>
<path d="M2698 293 c-2 -20 -9 -28 -23 -28 -11 0 -25 -3 -32 -8 -6 -4 -13 -2
-15 4 -2 7 -13 9 -27 4 -17 -5 -20 -10 -12 -18 15 -15 14 -120 -1 -135 -9 -9
-3 -12 28 -11 21 0 33 3 27 6 -9 3 -13 27 -13 69 0 62 12 85 23 43 7 -25 27
-16 27 12 0 10 5 19 10 19 6 0 10 -30 10 -69 0 -72 13 -97 44 -85 20 8 21 24
1 24 -12 0 -15 14 -15 65 0 51 3 65 15 65 8 0 15 5 15 10 0 6 -6 9 -12 8 -8
-2 -14 9 -16 25 -2 15 -9 27 -17 27 -8 0 -15 -12 -17 -27z"/>
<path d="M1042 258 c-17 -17 -15 -48 3 -48 9 0 15 9 15 25 0 14 4 25 9 25 5 0
10 -31 10 -70 0 -39 -4 -70 -10 -70 -16 0 -21 27 -9 49 13 26 -1 27 -23 3 -33
-36 -7 -101 28 -72 12 10 18 10 30 0 18 -15 40 -3 26 13 -5 7 -9 39 -8 72 1
33 -2 66 -6 73 -10 15 -49 16 -65 0z"/>
<path d="M1193 257 c3 -7 13 -42 22 -78 17 -61 30 -88 39 -78 10 10 17 71 8
65 -11 -7 -33 70 -25 90 4 10 -3 14 -22 14 -18 0 -25 -4 -22 -13z"/>
<path d="M1274 254 c3 -9 6 -21 7 -27 0 -7 4 -3 9 8 13 29 12 35 -6 35 -11 0
-14 -5 -10 -16z"/>
<path d="M1336 254 c-21 -21 -30 -58 -22 -96 20 -102 106 -82 106 25 0 75 -44
112 -84 71z m48 -10 c11 -30 6 -121 -7 -133 -8 -6 -17 -8 -20 -4 -9 8 -9 138
0 146 11 11 20 8 27 -9z"/>
<path d="M1451 261 c-9 -6 -10 -11 -2 -15 15 -10 14 -119 -1 -134 -9 -9 -5
-12 18 -12 l29 0 -3 85 c-3 85 -9 96 -41 76z"/>
<path d="M1535 250 c-38 -42 -16 -160 30 -160 16 0 50 38 42 47 -4 3 -7 1 -7
-5 0 -18 -37 -14 -44 4 -14 38 -4 124 15 124 5 0 9 -14 9 -31 0 -20 4 -29 13
-27 17 6 21 36 7 53 -17 21 -44 19 -65 -5z"/>
<path d="M1653 262 c-37 -23 -39 -125 -3 -157 22 -20 55 -13 71 16 9 18 8 19
-9 8 -29 -18 -52 -5 -52 31 0 27 3 30 30 30 26 0 30 4 30 28 0 43 -33 65 -67
44z m37 -38 c0 -15 -6 -24 -15 -24 -15 0 -21 40 -9 53 12 11 24 -3 24 -29z"/>
<path d="M1883 264 c-7 -3 -13 -17 -13 -31 0 -15 5 -23 13 -20 6 2 12 12 12
22 0 10 5 20 12 22 8 3 12 -17 12 -66 0 -40 -4 -71 -10 -71 -16 0 -21 27 -9
49 13 25 -2 28 -24 5 -33 -33 -6 -103 29 -74 12 10 18 10 30 0 18 -15 40 -3
26 14 -5 6 -11 43 -13 81 -3 67 -4 70 -28 72 -14 1 -31 -1 -37 -3z"/>
<path d="M1993 262 c-8 -5 -9 -13 -3 -22 14 -22 12 -114 -2 -128 -9 -9 -5 -12
18 -12 l29 0 -3 70 c-3 60 -1 70 13 70 14 0 16 -10 13 -70 -3 -69 -3 -70 22
-70 l26 0 -7 76 c-9 86 -19 105 -49 86 -12 -7 -21 -8 -25 -2 -7 12 -16 12 -32
2z"/>
<path d="M2197 253 c-26 -30 -26 -110 1 -143 22 -27 56 -21 73 13 12 21 11 22
-8 4 -19 -17 -22 -17 -37 -2 -9 9 -16 27 -16 41 0 21 5 24 35 24 34 0 35 1 29
28 -13 53 -46 68 -77 35z m43 -29 c0 -15 -6 -24 -15 -24 -15 0 -21 40 -9 53
12 11 24 -3 24 -29z"/>
<path d="M2483 262 c-37 -24 -38 -125 -2 -158 18 -17 23 -17 46 -4 31 17 45
61 37 108 -10 52 -46 76 -81 54z m45 -71 c3 -65 -12 -106 -29 -79 -10 16 -12
132 -2 142 17 17 28 -6 31 -63z"/>
<path d="M1271 194 c0 -11 3 -14 6 -6 3 7 2 16 -1 19 -3 4 -6 -2 -5 -13z"/>
<path d="M845 141 c-6 -20 3 -51 15 -51 13 0 21 35 14 54 -8 21 -21 20 -29 -3z"/>
<path d="M917 154 c-10 -11 -9 -52 2 -59 17 -10 32 30 18 49 -7 9 -16 14 -20
10z"/>
<path d="M1750 125 c0 -14 5 -25 10 -25 6 0 10 -9 10 -19 0 -11 -4 -23 -10
-26 -5 -3 -10 -11 -10 -18 0 -6 7 -2 15 9 20 26 20 104 0 104 -9 0 -15 -9 -15
-25z"/>
</g>
</svg>
